<svg width="136" height="135" viewBox="0 0 136 135" fill="none" xmlns="http://www.w3.org/2000/svg">
<path d="M135.8 67.5C135.8 104.7 105.6 135 68.3 135C31.1 135 0.799988 104.7 0.799988 67.5C0.799988 30.2 31.1 0 68.3 0C105.6 0 135.8 30.2 135.8 67.5Z" fill="url(#paint0_linear_203_2285)"/>
<path d="M52.2 58.4C70.2 52.2 73.2001 36.1 70.9001 21.3C70.9001 20.7 71.4001 20.3 71.8001 20.5C89.0001 28.9 108.3 47.2 108.3 74.7C108.3 95.8 92 114.4 68.2 114.4C47.2 115.4 29.3001 99.1 28.4001 78C27.7001 64.1 34.8 50.9 46.7 43.6C47.2 43.3 47.8001 43.6 47.8001 44.2C48.0001 47 48.8001 54.1 51.9001 58.4C52.1001 58.4 52.2 58.4 52.2 58.4V58.4Z" fill="white"/>
<defs>
<linearGradient id="paint0_linear_203_2285" x1="-32.2" y1="60.4" x2="63.2" y2="-35" gradientUnits="userSpaceOnUse">
<stop stop-color="#E17756"/>
<stop offset="1" stop-color="#D92A7A"/>
</linearGradient>
</defs>
</svg>
