<svg width="135" height="135" viewBox="0 0 135 135" fill="none" xmlns="http://www.w3.org/2000/svg">
<path d="M135 65.4728C135 103.037 105.618 130.946 67.5 130.946C60.75 130.946 54.1324 130.02 48.0441 128.3C46.853 128.036 45.5294 128.036 44.3382 128.565L30.9706 134.517C27.5294 136.104 23.5588 133.591 23.4265 129.755L23.0294 117.719C23.0294 116.264 22.3677 114.941 21.3088 113.883C8.07354 102.111 0 85.1807 0 65.4728C0 27.9086 29.5147 0 67.5 0C105.618 0 135 27.9086 135 65.4728V65.4728Z" fill="url(#paint0_radial_203_2257)"/>
<path d="M31.4375 84.4912L48.8541 53.549C51.6408 48.6086 57.5624 47.4385 61.7423 50.9488L75.5595 62.5196C76.8367 63.5597 78.5783 63.5597 79.8556 62.5196L98.4332 46.6585C100.988 44.5783 104.239 47.8286 102.613 50.8188L85.1967 81.761C82.41 86.7014 76.4884 87.8715 72.3084 84.3612L58.4913 72.7904C57.214 71.7503 55.4724 71.7503 54.1952 72.7904L35.5014 88.6515C33.0631 90.7317 29.812 87.4814 31.4375 84.4912Z" fill="white"/>
<defs>
<radialGradient id="paint0_radial_203_2257" cx="0" cy="0" r="1" gradientUnits="userSpaceOnUse" gradientTransform="translate(26.0735 133.194) scale(147.044 146.95)">
<stop stop-color="#5697FB"/>
<stop offset="0.6" stop-color="#8936F9"/>
<stop offset="0.9" stop-color="#DD537E"/>
<stop offset="1" stop-color="#E06F62"/>
</radialGradient>
</defs>
</svg>
