<svg width="136" height="136" viewBox="0 0 136 136" fill="none" xmlns="http://www.w3.org/2000/svg">
<path d="M135.8 67.6C135.8 104.8 105.6 135.1 68.3 135.1C31.1 135.1 0.799988 104.8 0.799988 67.6C0.799988 30.3 31.1 0.0999756 68.3 0.0999756C105.6 0.0999756 135.8 30.3 135.8 67.6Z" fill="#68B82B"/>
<path d="M104.3 87C94.6 98.1 73 111.7 68.1 113.7C63.2 115.8 63.9 112.4 64.1 111.3C64.1666 110.833 64.4 109.5 64.8 107.3C64.9 106.1 65.1 104.3 64.6 103.2C64.1 101.9 62.1 101.2 60.6 100.9C38.5 98 22.1 82.5 22.1 64.1C22.1 43.5 42.7 26.7 68.1 26.7C93.5 26.7 114.1 43.5 114.1 64.1C114.1 72.3 110.9 79.7 104.3 87V87Z" fill="white"/>
<path d="M59.7 55V75.1C59.7 75.5 59.3 75.9 58.8 75.9H55.5C55 75.9 54.6 75.5 54.6 75.1V55C54.6 54.5 55 54.1 55.5 54.1H58.8C59.3 54.1 59.7 54.5 59.7 55Z" fill="#68B82B"/>
<path d="M81.9 55V75.1C81.9 75.5 81.5 75.9 81 75.9H77.7C77.6333 75.9 77.5667 75.9 77.5 75.9C77.5 75.9 77.4667 75.9 77.4 75.9C77.4 75.9 77.3667 75.8667 77.3 75.8C77.3 75.8 77.2666 75.8 77.2 75.8C77.1333 75.7333 77.0667 75.6666 77 75.6L67.8 63.1V75.1C67.8 75.5 67.4 75.9 66.9 75.9H63.7C63.2 75.9 62.8 75.5 62.8 75.1V55C62.8 54.5 63.2 54.1 63.7 54.1H66.9C66.9 54.1 66.9333 54.1 67 54.1C67.0667 54.1 67.1 54.1 67.1 54.1C67.1 54.1 67.1333 54.1 67.2 54.1C67.2 54.1666 67.2 54.2 67.2 54.2C67.2666 54.2 67.3 54.2 67.3 54.2C67.3667 54.2 67.4 54.2 67.4 54.2C67.4 54.2 67.4 54.2333 67.4 54.3C67.4667 54.3 67.5 54.3 67.5 54.3C67.5 54.3667 67.5 54.4 67.5 54.4C67.5667 54.4 67.6 54.4 67.6 54.4C67.6 54.4667 67.6333 54.5 67.7 54.5L76.9 66.9V55C76.9 54.5 77.3 54.1 77.7 54.1H81C81.5 54.1 81.9 54.5 81.9 55V55Z" fill="#68B82B"/>
<path d="M51.9 71.8V75C51.9 75.5 51.5 75.9 51 75.9H38.1C37.8333 75.9 37.6333 75.8333 37.5 75.7C37.3 75.5 37.2 75.3 37.2 75.1V75V55C37.2 54.5 37.6 54.1 38.1 54.1H41.3C41.8 54.1 42.2 54.5 42.2 55V70.9H51C51.5 70.9 51.9 71.3 51.9 71.8V71.8Z" fill="#68B82B"/>
<path d="M90 59.1V62.5H98.8C99.3 62.5 99.7 62.9 99.7 63.4V66.6C99.7 67.1 99.3 67.5 98.8 67.5H90V70.9H98.8C99.3 70.9 99.7 71.3 99.7 71.8V75C99.7 75.5 99.3 75.9 98.8 75.9H85.9C85.6334 75.9 85.4334 75.8333 85.3 75.7C85.1 75.5 85 75.3 85 75.1V75V55C85 54.7333 85.1 54.5334 85.3 54.4C85.4334 54.2 85.6334 54.1 85.9 54.1H98.8C99.3 54.1 99.7 54.5 99.7 55V58.2C99.7 58.7 99.3 59.1 98.8 59.1H90Z" fill="#68B82B"/>
</svg>
