<svg width="136" height="136" viewBox="0 0 136 136" fill="none" xmlns="http://www.w3.org/2000/svg">
<path d="M135.2 67.7C135.2 104.9 104.9 135.2 67.7 135.2C30.4 135.2 0.200012 104.9 0.200012 67.7C0.200012 30.4 30.4 0.200012 67.7 0.200012C104.9 0.200012 135.2 30.4 135.2 67.7Z" fill="white"/>
<path d="M20.6 67.8C20.6 56.2 30 46.8 41.6 46.8C53.2 46.8 62.6 56.2 62.6 67.8C62.6 79.4 53.2 88.8 41.6 88.8C30 88.8 20.6 79.4 20.6 67.8Z" fill="#0063DC"/>
<path d="M72.8 67.8C72.8 56.2 82.2 46.8 93.8 46.8C105.4 46.8 114.8 56.2 114.8 67.8C114.8 79.4 105.4 88.8 93.8 88.8C82.2 88.8 72.8 79.4 72.8 67.8Z" fill="#FF0084"/>
</svg>
