<svg width="136" height="136" viewBox="0 0 136 136" fill="none" xmlns="http://www.w3.org/2000/svg">
<path d="M135.3 67.6C135.3 104.9 105.1 135.1 67.8 135.1C30.6 135.1 0.299988 104.9 0.299988 67.6C0.299988 30.4 30.6 0.0999756 67.8 0.0999756C105.1 0.0999756 135.3 30.4 135.3 67.6Z" fill="#9146FF"/>
<path d="M101.2 69.3L87.8 82.6H74.5L62.8 94.3V82.6H47.8V32.6H101.2V69.3Z" fill="white"/>
<path fill-rule="evenodd" clip-rule="evenodd" d="M107.8 26V72.6L77.8 102.6H64.5L47.8 119.3V102.6H27.8V42.6L44.5 26H107.8ZM101.1 32.6H47.8V82.6H62.8V94.3L74.5 82.6H87.8L101.1 69.3V32.6Z" fill="black"/>
<path d="M84.5 44.3H91.2V64.3H84.5V44.3Z" fill="black"/>
<path d="M66.2 44.3H72.8V64.3H66.2V44.3Z" fill="black"/>
</svg>
