<svg width="136" height="136" viewBox="0 0 136 136" fill="none" xmlns="http://www.w3.org/2000/svg">
<path d="M135.5 67.6C135.5 104.8 105.3 135.1 68 135.1C30.7 135.1 0.5 104.8 0.5 67.6C0.5 30.3 30.7 0.0999756 68 0.0999756C105.3 0.0999756 135.5 30.3 135.5 67.6Z" fill="#FEFB00"/>
<path d="M39.6 51.8C39.6 51.5333 39.6 51.3333 39.6 51.2C39.6 50 39.6 48.8 39.6 47.5C39.7 44.9 40 42.3 40.6 39.8C41.4 36.4 42.9 33.3333 45.1 30.6C48.9 25.7 53.9 22.6 59.8 20.9C63 20.1 66.2 19.8 69.4 19.9C72.9 20 76.3 20.7 79.6 21.9C83 23.3 86 25.2 88.7 27.7C90.1667 29.1667 91.4666 30.8 92.6 32.6C94.4 35.3 95.4 38.3 96 41.5C96.5 44.2 96.7 46.9 96.7 49.6C96.7 50.2666 96.7 50.9667 96.7 51.7C96.8 51.8 97 51.7 97.1 51.7C98.1 51.5 99.1 51.4 100.1 51.4C101.5 51.5 102.8 51.8 104 52.5C106.133 53.6333 107.467 55.4 108 57.8C108.7 60.6 108 63.1 106.3 65.3C105.4 66.4 104.4 67.2 103.2 68C102.267 68.6667 101.333 69.3 100.4 69.9C100 70.1667 99.6 70.4333 99.2 70.7C99.0667 70.7667 98.9333 70.8334 98.8 70.9C98.2 71.4 98.1 71.8 98.3 72.5C98.4333 72.7667 98.5333 73 98.6 73.2C99.9 75.7 101.6 77.9 103.6 79.9C105.8 82 108.3 83.7 111 85.1C111.733 85.5 112.467 85.8667 113.2 86.2C113.8 86.6 114.367 87.0333 114.9 87.5C115.967 88.5667 116.533 89.8667 116.6 91.4C116.7 92.7 116.3 93.8 115.6 94.9C114.867 96.0334 113.9 96.9667 112.7 97.7C111.7 98.3 110.7 98.8 109.7 99.2C108.633 99.6667 107.533 100.067 106.4 100.4C106 100.533 105.633 100.667 105.3 100.8C104.833 100.933 104.5 101.233 104.3 101.7C104.233 101.9 104.133 102.133 104 102.4C103.1 104.9 101.3 106.4 98.8 107C97.8 107.2 96.9 107.3 95.9 107.3C94.8 107.4 93.7 107.4 92.7 107.5C90.9667 107.567 89.2666 107.867 87.6 108.4C86.9333 108.6 86.2666 108.9 85.6 109.3C84.7333 109.833 83.9 110.333 83.1 110.8C81.6 111.7 80.1 112.6 78.5 113.2C76.3 114.2 74 114.833 71.6 115.1C69.4666 115.367 67.3667 115.4 65.3 115.2C62.0333 114.867 58.9666 113.933 56.1 112.4C54.9 111.8 53.8 111.2 52.7 110.5C52.1667 110.167 51.6667 109.867 51.2 109.6C49.8 108.7 48.2 108.2 46.5 107.8C44.9 107.5 43.2 107.4 41.5 107.4C40.4 107.3 39.3 107.3 38.2 107.1C37.3333 106.967 36.5333 106.7 35.8 106.3C34.2 105.567 33.0667 104.367 32.4 102.7C32.2667 102.433 32.1333 102.133 32 101.8C31.8 101.267 31.4334 100.9 30.9 100.7C30.5667 100.567 30.2 100.467 29.8 100.4C27.8667 99.8667 26 99.1 24.2 98.1C23.1 97.4 22 96.6 21.2 95.6C20.6 94.8 20.1 94 19.9 93.1C19.4 91.1 19.8 89.3 21.2 87.7C21.6 87.2 22.2 86.8 22.8 86.5C23.4 86.1 24 85.7334 24.6 85.4C26.9 84.3 29.1 82.9 31.1 81.3C33.5 79.3 35.5 77.1 37 74.5C37.2 74 37.5 73.5 37.7 73C37.9 72.7333 38 72.4333 38 72.1C38.0667 71.7666 37.9667 71.4667 37.7 71.2C37.5 71 37.3 70.8 37 70.6C35.7333 69.8 34.4667 68.9666 33.2 68.1C32.4 67.5666 31.6334 66.9667 30.9 66.3C29.9 65.3 29 64.1 28.5 62.7C27.4 59.6 28.1 56.1 30.5 53.8C31.7 52.6 33.2 51.8 35 51.5C36.3333 51.3 37.6667 51.3667 39 51.7C39.1 51.7 39.3 51.7 39.6 51.8V51.8Z" fill="black"/>
<path d="M91.2 51.7C91.2 53.5667 91.1334 55.4 91 57.2C91 57.5333 91 57.8667 91 58.2C91 58.9 91.3 59.1 92 59.1C92.2667 59.0333 92.5333 58.9667 92.8 58.9C93.4667 58.7 94.1333 58.4667 94.8 58.2C95.9 57.7 97 57.3 98.2 57C99 56.9 99.8 56.8 100.6 57C102.4 57.4 103.3 59.2 102.6 60.9C102.4 61.3667 102.133 61.7666 101.8 62.1C101.333 62.6333 100.833 63.1 100.3 63.5C99.5667 63.9667 98.8667 64.4 98.2 64.8C97.0667 65.6 95.9333 66.3666 94.8 67.1C94.3333 67.4333 93.8667 67.7666 93.4 68.1C93.1334 68.3 92.9 68.5 92.7 68.7C92.3 69.2333 92.1 69.8 92.1 70.4C92.1667 71.0667 92.2667 71.6667 92.4 72.2C93 74.1 93.8 75.9 94.8 77.6C96.7 80.7 99.1 83.3 101.9 85.6C104.3 87.6 106.9 89.1 109.6 90.5C109.867 90.6333 110.1 90.7667 110.3 90.9C110.5 91.0334 110.667 91.1667 110.8 91.3C111 91.5667 111 91.8333 110.8 92.1C110.667 92.3666 110.5 92.6 110.3 92.8C109.967 93 109.633 93.2 109.3 93.4C107.7 94.3 106.1 94.9 104.4 95.3C103.667 95.5 102.933 95.7 102.2 95.9C101.667 96.1 101.167 96.3333 100.7 96.6C99.9 97 99.5 97.6 99.3 98.5C99.2 98.9 99.2 99.4 99.1 99.9C98.9 101.1 98.4 101.5 97.3 101.8C96.8333 101.867 96.4 101.9 96 101.9C94.9334 101.967 93.8667 102 92.8 102C90.5 102.2 88.1 102.5 85.8 103.3C84.8667 103.633 83.9667 104.033 83.1 104.5C82.1667 105.033 81.2333 105.6 80.3 106.2C78.8 107 77.4 107.9 75.8 108.5C74 109.167 72.1334 109.6 70.2 109.8C68.6 109.933 67 109.9 65.4 109.7C63.0667 109.433 60.8334 108.767 58.7 107.7C57.7 107.167 56.7 106.6 55.7 106C55.0334 105.6 54.3333 105.167 53.6 104.7C52 103.7 50.1 103.1 48.2 102.7C46.4667 102.3 44.7334 102.067 43 102C42.0667 102 41.1334 101.967 40.2 101.9C39.6667 101.833 39.1333 101.767 38.6 101.7C37.9 101.5 37.4 101 37.3 100.3C37.2333 99.9 37.1667 99.4667 37.1 99C37.1 98.9333 37.1 98.8667 37.1 98.8C36.9 97.7 36.4 96.9 35.3 96.4C34.7 96.1334 34.0667 95.9 33.4 95.7C32.2 95.4 31 95.1 29.9 94.7C28.9 94.3667 27.9334 93.9334 27 93.4C26.7334 93.2667 26.4667 93.1 26.2 92.9C26.0667 92.7667 25.9 92.6333 25.7 92.5C25.1667 91.9667 25.2334 91.4667 25.9 91C26.2 90.7 26.5 90.6 26.8 90.4C29.2667 89.2 31.5667 87.8 33.7 86.2C36.7 83.9 39.3 81.1 41.3 77.9C42.4 76.1 43.3 74.3 43.8 72.3C44 71.6333 44.1334 71 44.2 70.4C44.2 69.7334 43.9667 69.1667 43.5 68.7C43.2334 68.4333 42.9667 68.1667 42.7 67.9C41.8334 67.3 40.9334 66.7 40 66.1C38.8 65.3 37.6334 64.5333 36.5 63.8C35.9 63.4 35.3333 62.9667 34.8 62.5C34.4667 62.1667 34.1667 61.8 33.9 61.4C33.3667 60.4667 33.3 59.5 33.7 58.5C33.9667 57.8333 34.4667 57.3666 35.2 57.1C35.9 56.8 36.7 56.8 37.5 56.9C38.4 57.1 39.3 57.4 40.1 57.7C41.0333 58.0333 41.9333 58.3667 42.8 58.7C43.2 58.8 43.6 59 44.1 59.1C44.1667 59.1 44.2667 59.1 44.4 59.1C44.9 59.1 45.3 58.9 45.3 58.2C45.3 57.6667 45.2667 57.1 45.2 56.5C45 53.5 44.9 50.4 45.1 47.3C45.2 45.3 45.4 43.4 45.8 41.5C46.4 38.8333 47.5334 36.4 49.2 34.2C52.2 30.2 56.3 27.6 61.1 26.2C63.7 25.5 66.4 25.3 69.2 25.3C72 25.4 74.8 26 77.5 27C80.1 28 82.4 29.4 84.4 31.3C87 33.6 88.9 36.4 90 39.7C90.4667 41.2333 90.8 42.7667 91 44.3C91.3 46.8 91.3 49.2 91.2 51.7V51.7Z" fill="white"/>
</svg>
