<svg width="136" height="136" viewBox="0 0 136 136" fill="none" xmlns="http://www.w3.org/2000/svg">
<path d="M135.5 67.6C135.5 104.9 105.3 135.1 68 135.1C30.7 135.1 0.5 104.9 0.5 67.6C0.5 30.4 30.7 0.0999756 68 0.0999756C105.3 0.0999756 135.5 30.4 135.5 67.6Z" fill="white"/>
<path d="M76.1 48.4C76.1 63.2 64.1 75.2 49.3 75.2C34.5 75.2 22.5 63.2 22.5 48.4C22.5 33.7 34.5 21.7 49.3 21.7C64.1 21.7 76.1 33.7 76.1 48.4Z" fill="url(#paint0_linear_203_2368)"/>
<path d="M113.5 86.8C113.5 101.6 101.5 113.6 86.7 113.6C71.9 113.6 59.9 101.6 59.9 86.8C59.9 72.1 71.9 60.1 86.7 60.1C101.5 60.1 113.5 72.1 113.5 86.8Z" fill="url(#paint1_linear_203_2368)"/>
<path opacity="0.1" d="M52.7 21.9C65.2 23.5 75 33.7 76 46.3C77.3 61.1 66.3 74 51.5 75.2C36.8 76.5 23.8 65.5 22.6 50.7C27.8 37.1 38.8 26.5 52.7 21.9Z" fill="black"/>
<path opacity="0.1" d="M113.4 84.9001C108.3 98.2001 97.7 108.7 84.2 113.4C71.1 112.3 60.8 101.7 59.9 88.6C58.9 73.8 70.1 61 84.8 60C99.6 59 112.4 70.1001 113.4 84.9001Z" fill="black"/>
<path opacity="0.1" d="M58.7 23.4C66.4 26.3 72.3 32.4 74.8 40.2C79.4 54.3 71.7 69.4 57.7 74C43.6 78.6 28.5 70.9 23.9 56.8C28.1 39.9 41.7 27 58.7 23.4V23.4Z" fill="black"/>
<path opacity="0.1" d="M77.9 112.1C69.9 109.4 63.7 103 61.1 94.9C56.6 80.8 64.4 65.7 78.5 61.2C92.6 56.7 107.7 64.5 112.2 78.6C108 95.4 94.8 108.3 77.9 112.1V112.1Z" fill="black"/>
<path opacity="0.1" d="M61.3 24.5C66.8 27.3 71.3 31.9 73.8 37.6C79.8 51.2 73.7 67 60.2 73C46.7 79 30.8 72.9 24.8 59.4C28.5 41.3 43 27.3 61.3 24.5Z" fill="black"/>
<path opacity="0.1" d="M75.4 111.1C69.4 108.3 64.7 103.5 62.1 97.5C56.2 83.9 62.4 68.1 75.9 62.2C89.5 56.3 105.3 62.5 111.2 76C107.7 94 93.4 108 75.4 111.1Z" fill="black"/>
<path d="M110.5 67.8C110.5 91.2 91.5 110.2 68 110.2C44.5 110.2 25.5 91.2 25.5 67.8C25.5 44.5 44.5 25.5 68 25.5C91.5 25.5 110.5 44.5 110.5 67.8Z" fill="url(#paint2_linear_203_2368)"/>
<path d="M56.1 66.4C54.3 65.2 52.9 63.7 51.9 62C50.9 60.1 50.4 58 50.4 55.9C50.4 53.2 51.3 50.5 53 48.5C54.8 46.4 57.2 44.8 59.8 44C62.6 43 65.6 42.5 68.6 42.5C70.5333 42.5 72.4667 42.6334 74.4 42.9C75.8 43.1667 77.1667 43.5333 78.5 44C79.7 44.4 80.8 45.1 81.7 46C82.3 46.8 82.7 47.7 82.7 48.7C82.7 49.8 82.4 50.8 81.6 51.6C81 52.3 80 52.7 79 52.7C78.3333 52.7 77.7 52.5333 77.1 52.2C75.6333 51.5333 74.1 51 72.5 50.6C71.0333 50.2 69.5666 50 68.1 50C66.1 49.9 64.2 50.4 62.5 51.4C61.1 52.3 60.2 53.9 60.3 55.6C60.3 56.7 60.7 57.7 61.5 58.5C62.4 59.4 63.4 60.2 64.6 60.7C65.8666 61.3667 67.8 62.2333 70.4 63.3C70.6667 63.3667 70.9333 63.4666 71.2 63.6C73.7333 64.6 76.1334 65.8333 78.4 67.3C80.2 68.5 81.7 70 82.8 71.9C84 73.8 84.5 76 84.4 78.2C84.5 80.9 83.8 83.6 82.2 85.8C80.7 87.9 78.5 89.5 76 90.4C73 91.5 69.9 92 66.7 91.9C62.4 92.1 58 91.3 54 89.5C53 89.1 52.1 88.4 51.4 87.5C50.8 86.7 50.5 85.7 50.5 84.7C50.5 83.7 50.9 82.6 51.7 81.9C52.5 81.2 53.5 80.8 54.5 80.9C55.7 80.9 56.9 81.2 57.9 81.8C59.1667 82.4 60.2 82.8667 61 83.2C61.8 83.5333 62.6666 83.8 63.6 84C64.7333 84.2667 65.8667 84.4 67 84.4C69 84.5 71 84 72.7 82.9C73.9 81.9 74.6 80.3 74.6 78.7C74.6 77.6 74.2 76.5 73.4 75.7C72.4 74.6 71.2 73.8 69.8 73.1C68.2667 72.3 66.1 71.3 63.3 70.1C60.7667 69.1 58.3666 67.8667 56.1 66.4V66.4Z" fill="white"/>
<defs>
<linearGradient id="paint0_linear_203_2368" x1="-49.2" y1="37" x2="-40.8" y2="89.8" gradientUnits="userSpaceOnUse">
<stop stop-color="#00B7F0"/>
<stop offset="0.3" stop-color="#009DE5"/>
<stop offset="0.8" stop-color="#0082D9"/>
<stop offset="1" stop-color="#0078D4"/>
</linearGradient>
<linearGradient id="paint1_linear_203_2368" x1="112.1" y1="184.4" x2="158.5" y2="157.6" gradientUnits="userSpaceOnUse">
<stop stop-color="#0078D4"/>
<stop offset="0.4" stop-color="#007AD5"/>
<stop offset="0.6" stop-color="#0082D9"/>
<stop offset="0.7" stop-color="#0090DF"/>
<stop offset="0.9" stop-color="#00A3E7"/>
<stop offset="1" stop-color="#00BCF2"/>
</linearGradient>
<linearGradient id="paint2_linear_203_2368" x1="-48.3" y1="96.7" x2="-5.89999" y2="170.1" gradientUnits="userSpaceOnUse">
<stop stop-color="#00B7F0"/>
<stop offset="1" stop-color="#007CC1"/>
</linearGradient>
</defs>
</svg>
