<svg width="136" height="135" viewBox="0 0 136 135" fill="none" xmlns="http://www.w3.org/2000/svg">
<path d="M135.3 67.5C135.3 104.7 105.1 135 67.8 135C30.6 135 0.299988 104.7 0.299988 67.5C0.299988 30.2 30.6 0 67.8 0C105.1 0 135.3 30.2 135.3 67.5Z" fill="#010201"/>
<path d="M49.8 94.6C49.8667 94.6667 49.9667 94.7333 50.1 94.8C50.8 95.3 51.4 96.1 52.1 96.6C54.3 98.4 56.8 99.4 59.6 99.6C66.4 100 72.3 94.9 73.1 88.2C73.1 87.8667 73.1 87.5333 73.1 87.2C73.1 67 73.1 46.8 73.1 26.6C73.1 25.2 73.1 25.2 74.5 25.2C77.5667 25.2 80.6334 25.2333 83.7 25.3C84 25.3 84.3 25.2 84.5 25.4C84.5667 25.4 84.6 25.4 84.6 25.4C84.7 25.6 84.8 25.8 84.8 26C86 31.4 88.9 35.7 93.4 39C93.6 39.2 93.9 39.5 94.1 39.7C94.3 39.9 94.5 40.0667 94.7 40.2C95.5 40.6 96 41.3 96.6 41.8C99.0667 43.8667 101.867 45.3 105 46.1C105.3 46.2 105.6 46.2 105.8 46.4C105.8 46.4667 105.833 46.5 105.9 46.5C106 46.7 106 46.9 106 47.2C106 50.7333 106 54.2667 106 57.8C106 58.6 105.9 58.7 105.1 58.7C102.5 58.7 99.9 58.3 97.4 57.8C93 56.8 89 55 85.3 52.5C85.1 52.4 84.9 52.1 84.7 52.2C84.4 52.4 84.5 52.7 84.5 52.9C84.5 63 84.6 73 84.5 83C84.5 90 82.2 96.3 77.7 101.6C72.8 107.3 66.6 110.6 59.2 111.5C53.4 112.2 48 111.2 42.8 108.6C42 108.2 41.2333 107.7 40.5 107.1C40.2333 106.9 40 106.7 39.8 106.5C38 105.1 36.7 103.2 35.6 101.2C33.8 98.2 32.6334 94.9667 32.1 91.5C31.8 89.6 31.6 87.6 31.7 85.6C32.1 79.2 34.2 73.4 38.4 68.5C41.8 64.3 46.2 61.4 51.3 59.7C53.4333 58.9667 55.6333 58.5333 57.9 58.4C58.3 58.3 58.7 58.2 59.1 58.3C59.3 58.3 59.5 58.2 59.7 58.4C59.7 58.4 59.7333 58.4 59.8 58.4C59.9 58.6 59.9 58.8 59.9 59.1C59.9 62.7 59.9 66.3 59.9 69.9C59.9 70.0333 59.8667 70.1667 59.8 70.3C59.8 70.6333 59.6333 70.7667 59.3 70.7C58.3 70.4 57.3 70.3 56.3 70.2C54.7 70.1333 53.1667 70.3667 51.7 70.9C46.7 72.7 43.7 76.3 43 81.5C42.4 86.7 44.5 90.8 48.8 93.8C49.1 94 49.5 94.3 49.8 94.6V94.6Z" fill="white"/>
<path d="M40.5 107.1C40.7 107.1 40.8 107.2 40.9 107.3C44.1 109.3 47.5667 110.6 51.3 111.2C53.2333 111.533 55.1333 111.633 57 111.5C63.4 111.2 69.1 109.1 74 105C78.7333 101.067 81.8667 96.1333 83.4 90.2C83.9333 88.3333 84.2333 86.4333 84.3 84.5C84.4 83.4 84.3 82.3 84.3 81.2C84.3667 71.6 84.4 62.0333 84.4 52.5C84.4 52.3 84.4 52.1 84.4 51.9C84.6 51.8 84.7 52 84.8 52.1C88.2 54.4333 91.9 56.1333 95.9 57.2C98.1 57.8 100.333 58.2 102.6 58.4C103.5 58.5 104.5 58.5 105.4 58.6C105.8 58.6 105.8 58.6 105.8 58.1C105.8 57.7 105.8 57.2667 105.8 56.8C105.8 53.5333 105.8 50.3 105.8 47.1C105.8 46.9 105.833 46.7 105.9 46.5C106.7 46.6 107.5 46.8 108.4 46.8C108.9 46.9 109.5 46.9 110 46.9C110.2 46.9 110.4 47 110.3 47.2C110.3 47.3333 110.3 47.4667 110.3 47.6C110.3 52.2667 110.3 56.9333 110.3 61.6C110.3 61.6667 110.3 61.7667 110.3 61.9C110.3 62.3 110.3 62.3 109.9 62.3C108.433 62.3 106.967 62.2 105.5 62C102.567 61.6 99.7 60.8667 96.9 59.8C94.2333 58.7333 91.7333 57.4 89.4 55.8C89.2 55.7 89.1 55.6 88.8 55.5C88.8 55.7 88.8 55.9 88.8 56.1C88.8667 66.3 88.8667 76.5 88.8 86.7C88.8 92.2 87.4 97.2 84.5 101.9C81.0333 107.433 76.2 111.333 70 113.6C66.2 114.933 62.3 115.467 58.3 115.2C51.6 114.7 45.8 112.1 40.8 107.5C40.6667 107.433 40.5667 107.3 40.5 107.1V107.1Z" fill="#CB1C54"/>
<path d="M84.5 25.4C84.3 25.4 84.1 25.4 83.9 25.4C80.6333 25.4 77.3667 25.4 74.1 25.4C73.3 25.4 73.3 25.4 73.3 26.1C73.3 46.2334 73.3 66.3333 73.3 86.4C73.3 87.8 73.2 89.2 72.8 90.5C71.2 95.2 68.1 98.3 63.3 99.4C58.1 100.6 53.7 99 50.2 95C50.1333 94.9333 50.1 94.8667 50.1 94.8C51.1 95.2 52.1 95.6 53.1 95.8C56.5 96.4 59.7 95.9 62.6 94.1C66 92 68 89 68.7 85.1C68.8 84.4 68.8 83.6 68.8 82.9C68.8 62.7667 68.8 42.6333 68.8 22.5C68.8 21.6 68.7 21.7 69.6 21.7C74.2667 21.7 78.9 21.7 83.5 21.7C83.6333 21.7 83.7667 21.7 83.9 21.7C84.3 21.7 84.3 21.7 84.3 22.2C84.3 23.2 84.3 24.3 84.5 25.4V25.4Z" fill="#6ABAC5"/>
<path d="M59.7 58.4C56.9 58.5 54.1 58.9 51.4 59.8C47.5333 61.1333 44.0667 63.1667 41 65.9C37.0667 69.5667 34.3667 74 32.9 79.2C32.3667 81 32.0333 82.8667 31.9 84.8C31.8333 85.9333 31.8333 87.1 31.9 88.3C32.1 91.4 32.7 94.5 33.9 97.5C35.2333 100.833 37.1333 103.767 39.6 106.3C39.6667 106.367 39.7333 106.433 39.8 106.5C39.2 106.3 38.8 105.9 38.3 105.5C33.7 101.9 30.4 97.3 28.7 91.6C28.0334 89.6667 27.6333 87.7 27.5 85.7C27.3667 84.1667 27.3333 82.6667 27.4 81.2C27.6 77.8 28.4 74.5667 29.8 71.5C31.2667 68.2333 33.2667 65.3333 35.8 62.8C38.8 59.9333 42.2333 57.8 46.1 56.4C48.5667 55.4667 51.1 54.9333 53.7 54.8C55.5667 54.6 57.4333 54.6333 59.3 54.9C59.6 54.9 59.7 55 59.7 55.3C59.7 56.3 59.7 57.3333 59.7 58.4V58.4Z" fill="#6ABAC5"/>
<path d="M49.8 94.6C48.7 94 47.7 93.3 46.8 92.4C44.5 90.3 43.2 87.6 42.9 84.5C42.1 78 46.2 72.4 51.9 70.6C54.3667 69.8667 56.8333 69.8333 59.3 70.5C59.4 70.6 59.5 70.6 59.7 70.6C59.8 70.4 59.7 70.2 59.7 70C59.7 66.3333 59.7 62.6667 59.7 59C59.7 58.8 59.7333 58.6 59.8 58.4C61.2 58.3 62.6 58.5 64 58.6C64.2 58.6 64.2 58.7 64.2 58.9C64.2 59.0333 64.2 59.1667 64.2 59.3C64.2 64.1 64.2 68.9333 64.2 73.8C64.2 73.9 64.3 74.1 64.2 74.3C63.5 74.2 62.9 74 62.3 73.9C58.5 73.4 55.2 74.3 52.2 76.6C49.6 78.7 48 81.3 47.5 84.6C46.9 88.0667 47.6 91.2667 49.6 94.2C49.6667 94.3333 49.7333 94.4667 49.8 94.6Z" fill="#CB1C54"/>
<path d="M94.1 39.7C92.7 38.9 91.5 37.8 90.4 36.7C87.3333 33.5667 85.4 29.8333 84.6 25.5C84.6 25.5 84.6 25.4667 84.6 25.4C85.9 25.3 87.2 25.4 88.5 25.4C88.7667 25.4 88.8667 25.5 88.8 25.7C88.8 25.7667 88.8 25.8667 88.8 26C88.8 29.7 89.9 33 91.7 36.2C92.3 37.3 93.1 38.4 93.9 39.4C94 39.5 94.1 39.5 94.1 39.7V39.7Z" fill="#CB1C54"/>
<path d="M105.8 46.4C102.067 45.6 98.7667 43.9333 95.9 41.4C95.5 41 95.1 40.7 94.7 40.2C94.9 40.2 95 40.3 95.1 40.3C97.3667 41.6333 99.7667 42.5 102.3 42.9C103.367 43.1 104.4 43.2 105.4 43.2C105.8 43.2 105.8 43.2 105.8 43.6C105.8 44.5333 105.8 45.4667 105.8 46.4V46.4Z" fill="#6ABAC5"/>
</svg>
