<svg width="136" height="135" viewBox="0 0 136 135" fill="none" xmlns="http://www.w3.org/2000/svg">
<path d="M135.7 67.5C135.7 104.7 105.4 135 68.2 135C30.9 135 0.700012 104.7 0.700012 67.5C0.700012 30.2 30.9 0 68.2 0C105.4 0 135.7 30.2 135.7 67.5Z" fill="#4467AD"/>
<path d="M73.4 58.3C74.5 57 75.4 55.7 76.5 54.7C80 51.4 84.2 49.7 89 49.7C91.7 49.8 94.3 50 96.9 50.7C102.7 52.4 106.1 56.4 107.8 62.2C109 66.4 109.2 70.9 109.2 75.3C109.2 84.6 109.2 93.9 109.2 103.2C109.2 104.1 109 104.3 108.1 104.3C103.3 104.3 98.5 104.3 93.7 104.3C92.8 104.4 92.7 104.1 92.7 103.3C92.7 94.4333 92.7 85.5667 92.7 76.7C92.7 74.4 92.5 72.2 91.9 70.1C90.7 66.1 87.9 64.1 83.7 64.3C78 64.6 75.1 67.4 74.3 73.2C74.1667 74.6 74.1 75.9667 74.1 77.3C74.1 86 74.1 94.6 74.1 103.2C74.1 104.1 73.9 104.4 73 104.3C68.2 104.3 63.3667 104.3 58.5 104.3C57.7 104.3 57.5 104.1 57.5 103.4C57.5 86.2667 57.5 69.1667 57.5 52.1C57.5 51.3 57.8 51.1 58.6 51.1C63.2 51.1 67.8 51.1 72.4 51.1C73.2 51.1 73.4 51.3 73.4 52.1C73.4 54.2 73.4 56.2 73.4 58.3V58.3Z" fill="#FEFEFE"/>
<path d="M47.1 77.8C47.1 86.2667 47.1 94.7 47.1 103.1C47.1 104.1 46.9 104.4 45.9 104.3C41.1 104.3 36.3 104.3 31.5 104.3C30.7 104.3 30.5 104.2 30.5 103.4C30.5 86.2667 30.5 69.1333 30.5 52C30.5 51.3 30.7 51.1 31.4 51.1C36.2667 51.1 41.1333 51.1 46 51.1C47 51.1 47.1 51.4 47.1 52.2C47.1 60.7333 47.1 69.2667 47.1 77.8V77.8Z" fill="#FEFEFE"/>
<path d="M48.4 34.1C48.4 39.4 44.1 43.7 38.8 43.7C33.6 43.7 29.2 39.4 29.2 34.2C29.2 28.9 33.5 24.6 38.8 24.6C44.1 24.6 48.4 28.9 48.4 34.1Z" fill="#FEFEFE"/>
</svg>
