<svg width="136" height="136" viewBox="0 0 136 136" fill="none" xmlns="http://www.w3.org/2000/svg">
<path d="M135.2 67.6C135.2 104.9 104.9 135.1 67.7 135.1C30.4 135.1 0.200012 104.9 0.200012 67.6C0.200012 30.4 30.4 0.0999756 67.7 0.0999756C104.9 0.0999756 135.2 30.4 135.2 67.6Z" fill="url(#paint0_linear_203_2307)"/>
<path fill-rule="evenodd" clip-rule="evenodd" d="M116.2 77.7C116.2 78.9 116.2 80.1 116.2 81.3C115.9 82.6 115.7 84 115.4 85.3C114 90.4 111 94.4 107 97.7C106.4 98.1 105.8 98.6 105.2 99C104.8 99.3 104.7 99.6 104.9 100.1C105.7 102.5 106.5 104.9 107.3 107.3C107.3 107.5 107.3 107.6 107.4 107.9C106.5 107.4 105.7 107 104.8 106.6C102.7 105.4 100.5 104.3 98.3 103.2C98 103 97.4 103 97 103.1C92.6 104.2 88.1 105 83.5 104.5C73.9 103.5 65.7 99.6 60.3 91.3C54.9 82.8 55.8 72.3 62.5 64.7C67.4 59.2 73.6 56 80.9 54.8C88.9 53.5 96.6 54.8 103.6 59C109 62.2 113 66.6 115 72.6C115.5 74.1 115.7 75.7 116 77.2C116.067 77.3333 116.133 77.5 116.2 77.7V77.7ZM81.5 71.4C81.5 69.2 79.7 67.4 77.5 67.4C75.3 67.4 73.5 69.2 73.5 71.4C73.5 73.6 75.3 75.4 77.5 75.4C79.7 75.4 81.5 73.6 81.5 71.4ZM100.9 71.4C100.9 69.2 99.1 67.4 96.9 67.4C94.7 67.4 92.9 69.2 92.9 71.4C92.9 73.6 94.7 75.4 96.9 75.4C99.1 75.4 100.9 73.6 100.9 71.4Z" fill="white"/>
<path fill-rule="evenodd" clip-rule="evenodd" d="M55.9 86.4C56 86.7 56.1 87 56.2 87.5C55.6 87.5 55 87.5 54.4 87.5C50.3 87.4 46.3 86.8 42.4 85.6C41.7 85.4 41.2 85.5 40.7 85.8C37.3667 87.6 34.0667 89.3666 30.8 91.1C30.5 91.2 30.2 91.4 29.6 91.7C30.8 88.1 31.9 84.8 33 81.5C31.3 80 29.5 78.6 27.9 77.1C23.4 72.7 20.4 67.5 19.5 61.3C18.5 54.8 19.9 48.9 23.3 43.4C27.9 36.2 34.6 31.6 42.7 29.2C53 26.1 63.1 26.8 72.7 31.7C80.6 35.7 86.3 41.7 89 50.3C89.2 50.9 89.3 51.6 89.5 52.2C89.5 52.2667 89.5 52.3666 89.5 52.5C88.9667 52.5 88.4667 52.5 88 52.5C80.1 52.3 72.7 54.1 66.2 58.8C60.8 62.7 57 67.7 55.5 74.3C54.6 78.4 54.8 82.4 55.9 86.4ZM61.7 46.9C61.7 49.7 64 51.9 66.7 51.9C69.5 51.9 71.7 49.7 71.7 46.9C71.7 44.1 69.5 41.9 66.7 41.9C64 41.9 61.7 44.1 61.7 46.9ZM47.4 46.9C47.4 44.1 45.2 41.9 42.4 41.9C39.7 41.9 37.4 44.1 37.4 46.9C37.4 49.7 39.7 51.9 42.4 51.9C45.2 51.9 47.4 49.7 47.4 46.9Z" fill="white"/>
<defs>
<linearGradient id="paint0_linear_203_2307" x1="-1.79998" y1="127.1" x2="-1.79998" y2="-7.90002" gradientUnits="userSpaceOnUse">
<stop stop-color="#00CD63"/>
<stop offset="0.6" stop-color="#00DE7D"/>
<stop offset="1" stop-color="#00E88D"/>
</linearGradient>
</defs>
</svg>
