<svg width="136" height="136" viewBox="0 0 136 136" fill="none" xmlns="http://www.w3.org/2000/svg">
<path d="M135.5 67.7C135.5 104.9 105.3 135.2 68 135.2C30.7 135.2 0.5 104.9 0.5 67.7C0.5 30.4 30.7 0.200012 68 0.200012C105.3 0.200012 135.5 30.4 135.5 67.7Z" fill="url(#paint0_linear_203_2354)"/>
<path opacity="0.9" d="M13.5 67.3C13.7667 67.3 13.9 67.4 13.9 67.6L14.9 73.8L13.9 79.9C13.9 80.1 13.7667 80.2 13.5 80.2C13.3 80.2 13.2 80.1 13.2 79.9L12.5 73.8L13.2 67.6C13.2 67.4 13.3 67.3 13.5 67.3ZM17.6 63.5C17.8666 63.5 18 63.6334 18 63.9L19.3 73.8L18 83.7C18 83.9 17.8666 84 17.6 84C17.4 84 17.3 83.9 17.3 83.7L16.3 73.8L17.3 63.9L17.6 63.5ZM31.2 61.7C31.6 61.7 31.9 62.1 31.9 62.4L33 73.7L31.6 85.7C31.6 86 31.2 86.3 30.9 86.3C30.6 86.3 30.2 86 30.2 85.7L29.5 73.7L30.2 62.4C30.2 62.1 30.6 61.7 31.2 61.7ZM22 61.1C22.4 61.1 22.7 61.4 22.7 61.7L23.7 73.7L22.7 85C22.7 85.2 22.6 85.4333 22.4 85.7C22 85.7 21.7 85.3 21.7 85L20.7 73.7L21.7 61.7C21.7 61.4 22 61.4 22 61.1ZM26.5 60.7C26.8 60.7 27.1 61.1 27.1 61.4L28.2 73.7L27.1 85.3C27.1 85.7 26.8 86 26.5 86C26.1 86 25.8 85.7 25.8 85.3L24.8 73.7L25.8 61.4C26.1 61.1 26.1 60.7 26.5 60.7ZM35.7 54.6C36 54.6 36.4 54.9 36.4 55.3L37.4 73.7L36.4 85.7C36.4 86 36 86.3 35.3 86.3C35 86.3 34.7 86 34.7 85.7L33.6 73.7L34.7 55.3C34.7 54.9 35 54.6 35.7 54.6ZM40.1 50.1C40.7666 50.1 41.1 50.4666 41.1 51.2L42.2 73.7L41.1 85.7C41.1 86.3 40.5 86.7 40.1 86.7C39.4333 86.7 39.1 86.3666 39.1 85.7L38.4 73.7L39.1 51.2C39.1 50.4666 39.4333 50.1 40.1 50.1ZM58.6 48.4C59.2 48.4 59.9 49.1 59.9 49.8L60.6 73.7L59.9 85C59.9 85.7 59.2 86.3 58.6 86.3C57.9 86.3 57.2 85.7 57.2 85L56.5 73.7L57.2 50.1C57.2 49.1 57.5 48.8 58.6 48.4V48.4ZM44.6 48.1C45.2666 48.1 45.6 48.4333 45.6 49.1L46.3 73.7L45.6 85.3C45.6 85.9667 45.2666 86.3 44.6 86.3C43.8666 86.3 43.5 85.9667 43.5 85.3L42.9 73.7L43.5 49.1C43.5 48.8 43.9 48.1 44.6 48.1ZM53.8 47.7C54.5 47.7 55.2 48.4 55.2 49.1L55.8 73.7L55.2 85.3C55.2 86 54.5 86.7 53.8 86.7C53.1 86.7 52.4 86 52.4 85.3L51.7 73.7L52.4 49.1C52.4 48.4 53.1 47.7 53.8 47.7ZM49 47.4C49.3 47.4 50 47.7 50 48.4L50.7 73.7L50 85.3C50 85.9667 49.6667 86.3 49 86.3C48.3333 86.3 48 85.9667 48 85.3L47.3 73.7L48 48.4C48 47.7 48.7 47.4 49 47.4ZM63 44C63.7 44 64.4 44.7 64.4 45.3L65.1 73.7L64.4 85C64.4 85.7 63.7 86.3 63 86.3C62.3 86.3 61.6 85.7 61.6 85L61 73.7L61.6 45.3C61.6 44.7 62.3 44 63 44ZM67.4 41.6H67.8C68.5 41.6 69.2 42.3 69.2 43L69.8 73.7L69.2 85C69.2 85.7 68.5 86.3 67.8 86.3C67.1 86.3 66.4 85.7 66.4 85L65.7 73.7L66.4 43C66.4 42.3 66.8 41.6 67.4 41.6ZM79.1 38.5C79.7 38.5 80.1 38.5 80.8 38.5C93.4 38.5 103.6 48.1 104.7 60.4C106 59.7 108.1 59.4 109.8 59.4C117.3 59.4 123.5 65.5 123.5 73C123.5 80.5 117.3 86.7 109.8 86.7H71.9C71.2 86.3 70.5 85.7 70.5 85V41.6C70.5 40.6 70.9 40.2 71.9 39.9C74.3 39.2 76.7 38.5 79.1 38.5V38.5Z" fill="white"/>
<defs>
<linearGradient id="paint0_linear_203_2354" x1="137.5" y1="16.7" x2="137.5" y2="130.3" gradientUnits="userSpaceOnUse">
<stop stop-color="#F8A01D"/>
<stop offset="0.5" stop-color="#F26E23"/>
<stop offset="1" stop-color="#EF5826"/>
</linearGradient>
</defs>
</svg>
