<svg width="136" height="136" viewBox="0 0 136 136" fill="none" xmlns="http://www.w3.org/2000/svg">
<path d="M135.7 67.7C135.7 104.9 105.4 135.2 68.2 135.2C30.9 135.2 0.700012 104.9 0.700012 67.7C0.700012 30.4 30.9 0.200012 68.2 0.200012C105.4 0.200012 135.7 30.4 135.7 67.7Z" fill="black"/>
<path fill-rule="evenodd" clip-rule="evenodd" d="M49.8 38.8C52.5333 38.8 55 39.0333 57.2 39.5C59.4667 40.0333 61.3667 40.8334 62.9 41.9C64.5 42.9667 65.7333 44.4 66.6 46.2C67.4666 48 67.9 50.2 67.9 52.8C67.9 55.6667 67.2667 58.0667 66 60C64.6667 61.8667 62.7333 63.4 60.2 64.6C63.6667 65.6 66.2667 67.3667 68 69.9C69.7333 72.4334 70.6 75.4667 70.6 79C70.6 81.8667 70.0334 84.3334 68.9 86.4C67.7667 88.5334 66.2667 90.2333 64.4 91.5C62.5334 92.8333 60.4 93.8333 58 94.5C55.6 95.1 53.1333 95.4 50.6 95.4H23.2V38.8H49.8ZM48.2 61.7C50.4 61.7 52.2 61.1666 53.6 60.1C55.0666 59.0333 55.8 57.3333 55.8 55C55.8 53.6667 55.5666 52.5666 55.1 51.7C54.6333 50.8333 53.9666 50.1666 53.1 49.7C52.3666 49.2333 51.4667 48.9 50.4 48.7C49.4 48.5666 48.3333 48.5 47.2 48.5H35.5V61.7H48.2ZM48.9 85.8C50.1667 85.8 51.3334 85.6667 52.4 85.4C53.5334 85.2 54.5334 84.8 55.4 84.2C56.2 83.6666 56.8667 82.9333 57.4 82C57.8667 81 58.1 79.7667 58.1 78.3C58.1 75.3667 57.3 73.3 55.7 72.1C54.0333 70.8333 51.8667 70.2 49.2 70.2H35.6V85.8H48.9Z" fill="white"/>
<path fill-rule="evenodd" clip-rule="evenodd" d="M88.3 85.6C89.9667 87.2666 92.4 88.1 95.6 88.1C97.8666 88.1 99.8333 87.5 101.5 86.3C103.1 85.1667 104.1 83.9666 104.5 82.7H114.4C112.8 87.6333 110.367 91.1667 107.1 93.3C103.833 95.4334 99.8667 96.5 95.2 96.5C92 96.5 89.1 95.9667 86.5 94.9C83.9 93.9 81.7 92.4 79.9 90.5C78.1 88.6333 76.7 86.3666 75.7 83.7C74.7 81.0333 74.2 78.1333 74.2 75C74.2 71.9333 74.7 69.0667 75.7 66.4C76.7667 63.7334 78.2 61.4333 80 59.5C81.8667 57.5667 84.1 56.0667 86.7 55C89.2333 53.8667 92.0667 53.3 95.2 53.3C98.6667 53.3 101.7 53.9667 104.3 55.3C106.9 56.6334 109.033 58.4333 110.7 60.7C112.367 62.9666 113.567 65.5667 114.3 68.5C115.033 71.4333 115.3 74.4666 115.1 77.6H85.5C85.5 80.9 86.6 83.9 88.3 85.6V85.6ZM101.2 64.1C99.9 62.6 97.6 61.8 94.9 61.8C93.1 61.8 91.6 62.1 90.4 62.7C89.2 63.3 88.2333 64.0667 87.5 65C86.8333 65.8667 86.3333 66.8 86 67.8C85.7333 68.8 85.5667 69.7 85.5 70.5H103.8C103.6 67.7 102.6 65.6 101.2 64.1Z" fill="white"/>
<path d="M106.2 42.6V48.2H83.2V42.6H106.2Z" fill="white"/>
</svg>
