<svg width="136" height="136" viewBox="0 0 136 136" fill="none" xmlns="http://www.w3.org/2000/svg">
<path d="M135.7 67.6C135.7 104.9 105.4 135.1 68.2 135.1C30.9 135.1 0.700012 104.9 0.700012 67.6C0.700012 30.4 30.9 0.0999756 68.2 0.0999756C105.4 0.0999756 135.7 30.4 135.7 67.6Z" fill="#DC4711"/>
<path fill-rule="evenodd" clip-rule="evenodd" d="M107.3 76.6C107.433 77.6 107.5 78.6 107.5 79.6C107.5 94.7 89.9 107 68.2 107C46.4 107 28.8 94.7 28.8 79.6C28.8 78.6 28.8667 77.6 29 76.6C25.6 75.1 23.2 71.6 23.2 67.6C23.2 62.2 27.6 57.8 33 57.8C35.7 57.8 38.1 58.8 39.8 60.5C46.7 55.6 56.1 52.5 66.6 52.2L71.6 28.7C71.7 28.2 71.9 27.8 72.3 27.5C72.7 27.3 73.2 27.2 73.7 27.3L90 30.8C91.2 28.5 93.5 26.9 96.3 26.9C100.2 26.9 103.3 30 103.3 33.9C103.3 37.8 100.2 40.9 96.3 40.9C92.5 40.9 89.5 37.9 89.3 34.2L74.6 31.1L70.2 52.2C80.5 52.6 89.8 55.7 96.5 60.6C98.3 58.8 100.7 57.8 103.3 57.8C108.7 57.8 113.2 62.2 113.2 67.6C113.2 71.7 110.7 75.1 107.3 76.6V76.6ZM52.7 81.7C56.6 81.7 59.7 78.5 59.7 74.7C59.7 70.8 56.6 67.6 52.7 67.6C48.8 67.6 45.7 70.8 45.7 74.7C45.7 78.5 48.8 81.7 52.7 81.7ZM84.9 90.7C84.2 90 83 90 82.3 90.7C79.3 93.7 72.8 94.8 68.2 94.8C63.6 94.8 57.1 93.7 54.1 90.7C53.3 90 52.2 90 51.5 90.7C50.8 91.4 50.8 92.5 51.5 93.2C56.3 98 65.5 98.4 68.2 98.4C70.9 98.4 80.1 98 84.9 93.2C85.6 92.5 85.6 91.4 84.9 90.7ZM90.7 74.7C90.7 70.8 87.5 67.6 83.6 67.6C79.8 67.6 76.6 70.8 76.6 74.7C76.6 78.5 79.8 81.7 83.6 81.7C87.5 81.7 90.7 78.5 90.7 74.7Z" fill="white"/>
</svg>
