<svg width="136" height="136" viewBox="0 0 136 136" fill="none" xmlns="http://www.w3.org/2000/svg">
<path fill-rule="evenodd" clip-rule="evenodd" d="M135.4 67.5C135.4 104.8 105.2 135.1 67.9 135.1C30.6 135.1 0.400024 104.8 0.400024 67.5C0.400024 30.3 30.6 0.0999756 67.9 0.0999756C105.2 0.0999756 135.4 30.3 135.4 67.5ZM97.4 91.6C79.6 80.8 57.6 78.2 31.9 84.1C29.6 84.6 28.2 86.9 28.7 89.1C29.2 91.4 31.5 92.8 33.7 92.3C57.2 86.9 77.2 89.1 93 98.8C95 100 97.6 99.4 98.8 97.4C100 95.4 99.4 92.8 97.4 91.6V91.6ZM105.4 71.8C84.5 59 54 55.4 29.5 62.8C26.8 63.7 25.2 66.6 26 69.4C26.9 72.2 29.8 73.7 32.6 72.9C54.1 66.4 81.7 69.6 99.9 80.8C102.3 82.3 105.6 81.5 107.1 79C108.6 76.6 107.8 73.3 105.4 71.8V71.8ZM116.5 57.7C118.2 54.7 117.2 50.8 114.2 49C89.2 34.2 49.6 32.8 25.7 40C22.4 41 20.5 44.5 21.5 47.9C22.5 51.2 26 53.1 29.4 52.1C50.2 45.8 86 47 107.8 59.9C110.8 61.7 114.7 60.7 116.5 57.7V57.7Z" fill="#7BD568"/>
<path d="M98.8 97.4C97.6 99.4 95 100 93 98.8C77.2 89.1 57.2 86.9 33.7 92.3C31.5 92.8 29.2 91.4 28.7 89.1C28.2 86.9 29.6 84.6 31.9 84.1C57.6 78.2 79.6 80.8 97.4 91.6C99.4 92.8 100 95.4 98.8 97.4V97.4Z" fill="#010201"/>
<path d="M107.1 79C105.6 81.5 102.3 82.3 99.9 80.8C81.7 69.6 54.1 66.4 32.6 72.9C29.8 73.7 26.9 72.2 26 69.4C25.2 66.6 26.8 63.7 29.5 62.8C54 55.4 84.5 59 105.4 71.8C107.8 73.3 108.6 76.6 107.1 79V79Z" fill="#010201"/>
<path d="M107.8 59.9C86 47 50.2 45.8 29.4 52.1C26 53.1 22.5 51.2 21.5 47.9C20.5 44.5 22.4 41 25.7 40C49.6 32.8 89.2 34.2 114.2 49C117.2 50.8 118.2 54.7 116.5 57.7C114.7 60.7 110.8 61.7 107.8 59.9V59.9Z" fill="#010201"/>
</svg>
