<svg width="136" height="137" viewBox="0 0 136 137" fill="none" xmlns="http://www.w3.org/2000/svg">
<path d="M135.2 68.5C135.2 105.8 104.9 136.1 67.6 136.1C60.6 136.1 53.9 135 47.6 133.1C50.4 128.6 54.5 121.2 56 115.3C56.5333 113.233 57.9333 107.9 60.2 99.3C62.4 103.5 68.8 107.1 75.7 107.1C96 107.1 110.7 88.3 110.7 65C110.7 42.7 92.5 26 69.1 26C39.9 26 24.4 45.6 24.4 66.9C24.4 76.8 29.7 89.1 38.1 93C39.4 93.7 40.1 93.4 40.4 92.2C40.6 91.2 41.8 86.6 42.3 84.5C42.5 83.8 42.4 83.2 41.9 82.5C39.1 79.1 36.9 72.9 36.9 67.1C36.9 52.2 48.2 37.8 67.4 37.8C84 37.8 95.6 49.1 95.6 65.3C95.6 83.5 86.4 96.2 74.4 96.2C67.8 96.2 62.8 90.7 64.4 84C66.3 75.9 70 67.2 70 61.5C70 56.3 67.2 52 61.4 52C54.7 52 49.2 59 49.2 68.4C49.2 72.3333 49.8667 75.6666 51.2 78.4C46.7333 97.2666 44.1 108.433 43.3 111.9C42 117.8 42.5 126 43.1 131.3C18 121.5 0.200012 97 0.200012 68.4C0.200012 31.1 30.4 0.899963 67.7 0.899963C105 0.899963 135.3 31.1 135.2 68.5V68.5Z" fill="#C40027"/>
</svg>
