<svg width="136" height="136" viewBox="0 0 136 136" fill="none" xmlns="http://www.w3.org/2000/svg">
<path d="M135.8 67.7C135.8 104.9 105.6 135.2 68.3 135.2C31.1 135.2 0.799988 104.9 0.799988 67.7C0.799988 30.4 31.1 0.200012 68.3 0.200012C105.6 0.200012 135.8 30.4 135.8 67.7Z" fill="#FEE712"/>
<path d="M69 102.1C66.1 102.1 63.3 102 60.4 101.6C60 101.5 59.7 101.6 59.3 101.9C53.7 105.8 48.1 109.8 42.3 113.4C41.6 113.9 40.8 114.3 40.1 114.7C39.8333 114.833 39.5666 114.933 39.3 115C38.3 115.1 37.8 114.6 38 113.6C38.3 112 38.8 110.4 39.3 108.9C40.4333 104.833 41.5667 100.8 42.7 96.8C42.8 96.5 42.8 96.3 42.4 96.1C37 93.3 32.1 89.7 28.2 85C24.3 80.3 21.7 75 20.7 69C19.7 62.1 20.9 55.6 24.2 49.4C27.5 43.4 32.2 38.8 37.9 35.1C43.9 31.1 50.5999 28.7 57.6999 27.4C62.9666 26.4667 68.2999 26.2333 73.6999 26.7C83.6999 27.6 92.9999 30.7 101.2 36.8C106.7 40.8 111 45.7 113.7 52C117.9 62 117.1 71.7 111.4 81C107.8 86.9 102.7 91.4 96.6999 94.8C90.9999 98.1 84.8 100.2 78.3 101.3C75.2334 101.833 72.1333 102.1 69 102.1V102.1Z" fill="black"/>
<path d="M91.2 61.7C91.4 61.5 91.4 61.4 91.6 61.3C93.9333 58.9 96.3 56.5333 98.7 54.2C99.5 53.3 100.6 53.1 101.7 53.8C102.8 54.4 103.3 55.7 103 56.8C102.9 57.2 102.6 57.5 102.3 57.8C100.367 59.7334 98.4333 61.6666 96.5 63.6C96.2 63.9 96.2 64 96.4 64.3C98.6 67.1667 100.767 70.0334 102.9 72.9C103.8 74.1 103.7 75.7 102.6 76.7C101.4 77.8 99.5 77.6 98.5 76.3C96.5667 73.7667 94.6667 71.2333 92.8 68.7C92.7334 68.6333 92.6666 68.5667 92.6 68.5C92.4 68.2 92.3 67.8 92 67.8C91.7 67.8 91.1 68.8 91.1 69.1C91.1 70.9666 91.1 72.8667 91.1 74.8C91.1 76.1 90.1 77.2 88.8 77.4C87.6 77.7 86.3 77 85.8 75.8C85.6667 75.4667 85.6 75.1 85.6 74.7C85.6 68.3666 85.6 62.0667 85.6 55.8C85.6 54.2 86.8 53 88.3 53C89.8 53 91.1 54.2 91.1 55.8C91.1 57.6 91.1 59.4 91.1 61.2C91.1 61.3333 91.1 61.4666 91.1 61.6C91.1666 61.6 91.2 61.6333 91.2 61.7V61.7Z" fill="#FEE712"/>
<path d="M58.1999 72.7C56.9333 72.7 55.6667 72.7 54.4 72.7C54.1 72.6 53.9 72.7001 53.8 73.0001C53.4667 73.9334 53.1334 74.8333 52.8 75.7C52.3 77.1 51.3 77.7001 49.8 77.4001C47.9 77.2001 47.1999 76.2 47.5999 74.2C47.8999 72.9 48.4 71.8 48.8 70.6C50.6667 65.6667 52.5666 60.7334 54.5 55.8001C55 54.4001 55.9999 53.4 57.5999 53.1C59.2999 52.7 61.1 53.9 61.8 55.7C62.8667 58.3667 63.9 61.0668 64.9 63.8001C66.1 66.8001 67.2667 69.8334 68.4 72.9001C68.7 73.8001 68.9 74.6001 68.8 75.5001C68.8 76.3001 68.3999 76.9 67.5999 77.2C67.0999 77.4 66.5 77.5001 65.9 77.5001C64.8 77.4001 63.9999 77.0001 63.5999 75.8001C63.2999 74.9001 62.8999 74 62.5999 73.1C62.4999 72.8 62.3 72.6 62 72.6C60.7333 72.6667 59.4666 72.7 58.1999 72.7V72.7Z" fill="#FEE712"/>
<path d="M39 66.8C39 64.2 39 61.5667 39 58.9C39 58.5 39 58.4 38.5 58.4C37.3 58.4 36.1 58.4 34.8 58.4C33.2 58.4 32 57.3 32 55.7C32 54.2 33.2 53 34.8 53C39.4667 53 44.1334 53 48.8 53C50.3 53 51.4 54 51.6 55.4C51.7 56.8 50.9 58 49.6 58.3C49.3 58.4 49 58.4 48.7 58.4C47.5 58.4 46.3 58.4 45.1 58.4C44.7 58.4 44.6 58.5 44.6 58.9C44.6 64.1 44.6 69.3333 44.6 74.6C44.6 76 43.9 77 42.7 77.4C40.8 78 39 76.7 39 74.7C39 72.1 39 69.4667 39 66.8V66.8Z" fill="#FEE712"/>
<path d="M70.3 65.1C70.3 62.0333 70.3 58.9334 70.3 55.8001C70.3 54.3001 71.3 53.2 72.8 53C74.2 52.8 75.5 53.8 75.9 55.1C75.9 55.4 75.9 55.8 75.9 56.1C75.9 61.2333 75.9 66.3667 75.9 71.5C75.9 72 76 72.1 76.5 72.1C78.3 72.0333 80.1 72 81.9 72C83.3 72.1 84.4 73.1001 84.5 74.4001C84.5 75.8001 83.4 77.1 82.1 77.1C78.9666 77.1 75.8333 77.1 72.7 77.1C71.4 77.1 70.3 75.9 70.3 74.5C70.3 71.3667 70.3 68.2333 70.3 65.1V65.1Z" fill="#FEE712"/>
<path d="M58.2 59.9C59.1 62.6 60 65.1 60.9 67.8C59.7667 67.8 58.6334 67.8 57.5 67.8C56.9 67.7334 56.3334 67.7334 55.8001 67.8C55.5001 67.8 55.4 67.7 55.5 67.4C56.2334 65.4 56.9666 63.4 57.7 61.4C57.8 60.9 58 60.5 58.2 59.9Z" fill="black"/>
</svg>
