<svg width="136" height="136" viewBox="0 0 136 136" fill="none" xmlns="http://www.w3.org/2000/svg">
<path d="M135.8 67.6C135.8 104.9 105.6 135.1 68.3 135.1C31.1 135.1 0.799988 104.9 0.799988 67.6C0.799988 30.4 31.1 0.0999756 68.3 0.0999756C105.6 0.0999756 135.8 30.4 135.8 67.6Z" fill="white"/>
<path d="M68.3 19.6C94.8 19.6 116.3 41.1 116.3 67.6C116.3 94.1 94.8 115.6 68.3 115.6C41.8 115.6 20.3 94.1 20.3 67.6C20.3 41.1 41.8 19.6 68.3 19.6Z" fill="#EA4C89"/>
<path fill-rule="evenodd" clip-rule="evenodd" d="M118.3 67.6C118.3 95.2 95.9 117.6 68.3 117.6C40.7 117.6 18.3 95.2 18.3 67.6C18.3 40 40.7 17.6 68.3 17.6C95.9 17.6 118.3 40 118.3 67.6ZM77.5 57.5C78.5 59.5 79.5 61.6 80.4 63.7C80.7 64.4 81 65.2 81.3 65.9C95.5 64.1 109.6 67 111 67.3C110.9 57.2 107.3 48 101.4 40.7C100.4 41.9 93.3 51.1 77.5 57.5V57.5ZM58.3 26.2C59.5 27.8 67.2 38.3 74.2 51.2C89.4 45.5 95.9 36.8 96.6 35.7C89.1 29.1 79.2 25 68.3 25C64.8334 25 61.5 25.4 58.3 26.2V26.2ZM26.5 58.9C28.4 58.9 46 59 66 53.7C58.9 41.1 51.3 30.5 50.2 29C38.2 34.7 29.3 45.7 26.5 58.9V58.9ZM36.6 96.2C37.5 94.6 49.2 75.2 71.3 68.1C71.8 67.9 72.4 67.7 72.9 67.6C71.9 65.1 70.7 62.7 69.5 60.3C48.2 66.7 27.4 66.4 25.6 66.4C25.6 66.8 25.6 67.2333 25.6 67.7C25.6 78.6 29.8 88.7 36.6 96.2V96.2ZM85 107C84.4 103.2 81.9 90.1 75.9 74.6C75.8 74.6 75.8 74.6 75.7 74.7C51.6 83.1 42.9 99.8 42.1 101.4C49.3 107 58.5 110.4 68.3 110.4C74.2 110.4 79.9 109.2 85 107V107ZM110.4 74.5C108.9 74 97.2 70.5 83.8 72.6C89.4 88 91.7 100.4 92.1 103C101.7 96.6 108.6 86.3 110.4 74.5Z" fill="#C32361"/>
</svg>
